<svg width="2724" height="947" xmlns="http://www.w3.org/2000/svg" xmlns:xlink="http://www.w3.org/1999/xlink" xml:space="preserve" overflow="hidden"><defs><linearGradient x1="682.208" y1="939" x2="1188.79" y2="939" gradientUnits="userSpaceOnUse" spreadMethod="reflect" id="stroke0"><stop offset="0" stop-color="#C4473A"/><stop offset="0.2" stop-color="#C4473A"/><stop offset="0.78" stop-color="#F4C542"/><stop offset="1" stop-color="#F4C542"/></linearGradient><linearGradient x1="293.199" y1="943.341" x2="799.792" y2="943.341" gradientUnits="userSpaceOnUse" spreadMethod="reflect" id="stroke1"><stop offset="0" stop-color="#C4473A"/><stop offset="0.52" stop-color="#C4473A"/><stop offset="1" stop-color="#F4C542"/></linearGradient><linearGradient x1="340.208" y1="940.443" x2="800.144" y2="940.443" gradientUnits="userSpaceOnUse" spreadMethod="reflect" id="stroke2"><stop offset="0" stop-color="#C4473A"/><stop offset="0.52" stop-color="#C4473A"/><stop offset="1" stop-color="#F4C542"/></linearGradient></defs><g transform="translate(-292 -492)"><path d="M1301.5 940.5C1301.5 832.252 1389.25 744.5 1497.5 744.5 1605.75 744.5 1693.5 832.252 1693.5 940.5 1693.5 1048.75 1605.75 1136.5 1497.5 1136.5 1389.25 1136.5 1301.5 1048.75 1301.5 940.5Z" stroke="#C4473A" stroke-width="114.583" stroke-miterlimit="8" fill="none" fill-rule="evenodd"/><path d="M0 0 0.000360892 244.332" stroke="#C4473A" stroke-width="114.583" stroke-miterlimit="8" fill="none" fill-rule="evenodd" transform="matrix(1 0 0 -1 2958.5 1184.83)"/><path d="M2566.5 940.5C2566.5 832.252 2654.25 744.5 2762.5 744.5 2870.75 744.5 2958.5 832.252 2958.5 940.5 2958.5 1048.75 2870.75 1136.5 2762.5 1136.5 2654.25 1136.5 2566.5 1048.75 2566.5 940.5Z" stroke="#C4473A" stroke-width="114.583" stroke-miterlimit="8" fill="none" fill-rule="evenodd"/><path d="M0 0 0.000360892 421.75" stroke="#C4473A" stroke-width="114.583" stroke-miterlimit="8" fill="none" fill-rule="evenodd" transform="matrix(1 0 0 -1 2332.5 971.25)"/><path d="M2320.5 756.5 2529.21 756.5" stroke="#C4473A" stroke-width="114.583" stroke-miterlimit="8" fill="none" fill-rule="evenodd"/><path d="M2531.77 1136.47C2423.54 1138.23 2334.33 1054.59 2332.53 949.671 2332.47 946.56 2332.5 943.447 2332.6 940.336" stroke="#C4473A" stroke-width="114.583" stroke-miterlimit="8" fill="none" fill-rule="evenodd"/><path d="M1813.5 939C1813.5 831.028 1901.25 743.5 2009.5 743.5 2117.75 743.5 2205.5 831.028 2205.5 939 2205.5 1046.97 2117.75 1134.5 2009.5 1134.5 1901.25 1134.5 1813.5 1046.97 1813.5 939Z" stroke="#C4473A" stroke-width="114.583" stroke-miterlimit="8" fill="none" fill-rule="evenodd"/><path d="M0 0 0.000360892 246.218" stroke="#C4473A" stroke-width="114.583" stroke-miterlimit="8" fill="none" fill-rule="evenodd" transform="matrix(1 0 0 -1 2205.5 1185.72)"/><path d="M0 0 0.000360892 636.198" stroke="#C4473A" stroke-width="114.583" stroke-miterlimit="8" fill="none" fill-rule="evenodd" transform="matrix(1 0 0 -1 1693.5 1185.7)"/><path d="M739.5 939C739.5 831.028 827.252 743.5 935.5 743.5 1043.75 743.5 1131.5 831.028 1131.5 939 1131.5 1046.97 1043.75 1134.5 935.5 1134.5 827.252 1134.5 739.5 1046.97 739.5 939Z" stroke="url(#stroke0)" stroke-width="114.583" stroke-miterlimit="8" fill="none" fill-rule="evenodd"/><path d="M1131.47 1181.98C1133.41 1290.21 1047.25 1379.52 939.024 1381.47 911.131 1381.97 883.451 1376.51 857.837 1365.46" stroke="#F4C542" stroke-width="114.583" stroke-miterlimit="8" fill="none" fill-rule="evenodd"/><path d="M0 0 0.0317585 242.695" stroke="#F4C542" stroke-width="114.583" stroke-miterlimit="8" fill="none" fill-rule="evenodd" transform="matrix(1 0 0 -1 1131.5 1182.19)"/><path d="M701.915 1059.92C635.959 1145.76 512.909 1161.87 427.076 1095.92 341.243 1029.96 325.129 906.909 391.085 821.076 457.041 735.242 580.091 719.129 665.924 785.085 714.204 822.184 742.5 879.613 742.5 940.5" stroke="url(#stroke1)" stroke-width="114.583" stroke-miterlimit="8" fill="none" fill-rule="evenodd"/><path d="M397.5 939.5 742.852 941.386" stroke="url(#stroke2)" stroke-width="114.583" stroke-linecap="round" stroke-miterlimit="8" fill="none" fill-rule="evenodd"/></g></svg>